<svg width="25" height="24" viewBox="0 0 25 24" fill="none" xmlns="http://www.w3.org/2000/svg">
<path d="M10.5 2C9.22678 1.99986 7.97191 2.30363 6.8397 2.88604C5.70749 3.46845 4.73065 4.31269 3.99036 5.34858C3.25007 6.38448 2.76772 7.5821 2.58341 8.84192C2.3991 10.1017 2.51815 11.3873 2.93065 12.5919C3.34316 13.7964 4.03722 14.8851 4.95513 15.7675C5.87304 16.6498 6.9883 17.3003 8.2082 17.665C9.4281 18.0296 10.7174 18.0977 11.969 17.8638C13.2205 17.6299 14.3982 17.1006 15.404 16.32L20.792 21.706C20.8842 21.8015 20.9946 21.8777 21.1166 21.9301C21.2386 21.9825 21.3698 22.0101 21.5026 22.0112C21.6354 22.0124 21.7671 21.9871 21.89 21.9368C22.0129 21.8865 22.1245 21.8123 22.2184 21.7184C22.3123 21.6245 22.3865 21.5128 22.4368 21.39C22.4871 21.2671 22.5124 21.1354 22.5113 21.0026C22.5101 20.8698 22.4825 20.7386 22.4301 20.6166C22.3777 20.4946 22.3015 20.3842 22.206 20.292L16.82 14.906C17.7381 13.7235 18.3059 12.307 18.459 10.8178C18.612 9.32851 18.3441 7.82619 17.6857 6.48165C17.0273 5.1371 16.0048 4.00429 14.7345 3.21202C13.4642 2.41976 11.9971 1.99983 10.5 2V2ZM4.5 10C4.5 8.4087 5.13214 6.88258 6.25736 5.75736C7.38258 4.63214 8.9087 4 10.5 4C12.0913 4 13.6174 4.63214 14.7426 5.75736C15.8679 6.88258 16.5 8.4087 16.5 10C16.5 11.5913 15.8679 13.1174 14.7426 14.2426C13.6174 15.3679 12.0913 16 10.5 16C8.9087 16 7.38258 15.3679 6.25736 14.2426C5.13214 13.1174 4.5 11.5913 4.5 10V10Z" fill="white"/>
</svg>
