<svg width="562" height="953" viewBox="0 0 562 953" fill="none" xmlns="http://www.w3.org/2000/svg">
<path d="M6.59857 828.419C10.0681 686.552 11.6011 498.025 4.58145 274.946C0.305104 139.152 -6.4725 10.0756 27.5769 1.42764C72.5593 -10.036 98.0963 211.675 293.033 342.924C407.486 419.951 485.509 404.908 531.863 489.337C574.95 567.812 569.463 687.517 511.288 733.09C453.356 778.462 369.765 729.631 327.728 782.967C298.52 820.013 319.902 867.597 287.385 885.939C262.574 899.936 228.767 884.29 207.91 874.676C161.031 853.036 135.978 815.789 125.207 797.045" stroke="#296431" stroke-width="2" stroke-miterlimit="10"/>
<path d="M6.5983 828.419C16.7244 688.482 19.508 509.69 11.7622 301.132C11.5201 294.213 11.1974 287.255 10.8747 280.296C5.14598 146.513 -5.02046 22.3037 27.3346 10.2769C60.2947 -1.951 89.9871 115.139 183.502 230.821C213.033 267.143 246.316 305.074 290.169 337.534C304.975 348.515 319.296 357.806 333.537 365.529C422.211 413.717 488.454 407.522 530.33 479.361C560.063 530.445 566.235 603.209 550.663 663.785C542.998 693.671 529.16 720.661 507.294 738.279C451.46 783.329 369.604 736.911 327.889 788.88C299.165 824.839 319.094 871.056 286.901 888.432C261.727 901.988 228 885.979 207.224 876.044C201.172 873.107 195.484 869.97 190.199 866.672C154.253 844.227 134.364 813.496 125.206 797.005" stroke="#2A6A39" stroke-width="2" stroke-miterlimit="10"/>
<path d="M6.59874 828.419C23.5024 685.988 27.5367 509.448 18.2982 306.321C17.9755 299.442 17.5317 292.564 17.1686 285.646C9.70515 153.914 -3.40631 34.411 27.1333 19.2066C58.8428 3.39886 94.7076 110.795 186.447 222.817C215.736 258.616 245.792 298.356 287.345 332.144C301.425 343.608 315.182 353.462 329.382 361.346C416.362 409.735 485.187 398.633 528.797 469.426C560.184 520.389 565.025 597.256 548.202 664.228C540.456 695.039 526.74 724.08 503.301 743.508C449.483 788.075 369.322 744.111 328.091 794.833C299.73 829.666 318.328 874.555 286.457 890.967C260.92 904.12 227.234 887.708 206.578 877.451C200.487 874.394 194.839 871.177 189.594 867.838C153.649 844.911 134.163 813.697 125.207 797.085" stroke="#2A7041" stroke-width="2" stroke-miterlimit="10"/>
<path d="M6.59883 828.419C30.2801 683.454 35.4843 509.247 24.8338 311.469C24.4707 304.631 23.9059 297.833 23.4218 290.995C14.3447 161.315 -1.79248 46.3974 26.851 28.0957C57.3502 8.58743 99.5893 106.25 189.272 214.812C218.399 250.048 245.147 291.639 284.4 326.794C297.754 338.74 310.946 349.118 325.146 357.203C410.391 405.793 481.838 389.784 527.184 459.491C560.346 510.333 563.815 591.343 545.782 664.67C537.996 696.366 524.36 727.539 499.307 748.737C447.385 792.701 369.12 751.392 328.253 800.786C300.336 834.533 317.481 878.015 285.973 893.501C260.033 906.211 226.427 889.438 205.893 878.819C199.761 875.641 194.153 872.303 188.989 868.924C153.084 845.474 133.961 813.778 125.207 797.045" stroke="#2B7649" stroke-width="2" stroke-miterlimit="10"/>
<path d="M6.59856 828.419C37.0575 680.92 43.3913 509.006 31.3691 316.618C30.9657 309.82 30.2799 303.063 29.7151 296.305C19.0645 168.676 -0.138689 58.2232 26.649 36.9451C56.0187 13.6155 104.511 101.664 192.216 206.728C221.183 241.44 244.662 284.841 281.576 321.324C294.203 333.793 306.79 344.694 320.991 352.939C404.541 401.69 478.57 380.814 525.651 449.475C560.507 500.318 562.564 585.39 543.361 665.113C535.494 697.734 521.979 730.958 495.353 753.926C445.247 797.166 368.918 758.632 328.495 806.659C301.021 839.28 316.715 881.393 285.57 895.914C259.226 908.222 225.741 891.047 205.287 880.106C199.155 876.808 193.507 873.349 188.424 869.97C152.559 845.997 133.8 813.858 125.247 797.005" stroke="#2B7C51" stroke-width="2" stroke-miterlimit="10"/>
<path d="M6.59832 828.419C43.8348 678.427 51.2176 508.765 37.9044 321.807C37.4203 315.049 36.6538 308.372 36.0083 301.695C23.7844 176.118 1.47479 69.9684 26.4067 45.8747C54.6064 18.6033 109.432 97.1594 195.08 198.764C223.885 232.833 244.057 278.124 278.671 315.934C290.532 328.886 302.594 340.309 316.795 348.756C398.651 397.628 475.383 371.885 524.117 439.5C560.708 490.262 561.313 579.437 540.94 665.555C532.993 699.061 519.558 734.337 491.359 759.155C443.028 801.631 368.716 765.912 328.656 812.612C301.626 844.147 315.827 884.812 285.085 898.448C258.338 910.314 224.934 892.777 204.601 881.514C198.429 878.095 192.821 874.555 187.819 871.096C151.994 846.56 133.638 814.019 125.287 797.005" stroke="#2C8259" stroke-width="2" stroke-miterlimit="10"/>
<path d="M6.59889 828.419C50.613 675.892 59.0447 508.563 44.4405 326.955C43.9161 320.278 43.0286 313.641 42.3024 307.004C28.5051 183.478 3.04874 81.5524 26.2056 54.6832C53.195 23.309 114.395 92.5334 198.026 190.638C226.669 224.225 243.533 271.406 275.847 310.544C286.982 324.019 298.48 335.925 312.64 344.573C392.802 393.565 472.156 362.955 522.544 429.524C560.91 480.206 560.063 573.484 538.48 665.957C530.452 700.348 517.138 737.715 487.325 764.343C440.729 805.974 368.475 773.152 328.777 818.524C302.191 848.973 314.899 888.191 284.521 900.942C257.33 912.365 224.087 894.426 203.795 882.881C197.623 879.342 192.015 875.681 187.053 872.222C151.269 847.163 133.276 814.18 125.126 797.045" stroke="#2D8861" stroke-width="2" stroke-miterlimit="10"/>
<path d="M6.59849 828.419C57.3902 673.358 66.7901 508.322 50.9757 332.104C50.3706 325.467 49.4024 318.87 48.5551 312.354C33.2248 190.88 4.541 93.0968 25.9227 63.5729C51.6615 28.0557 119.317 87.9482 200.85 182.634C229.332 215.697 242.887 264.73 272.902 305.154C283.311 319.152 294.243 331.541 308.364 340.39C386.871 389.462 468.928 354.025 520.971 419.549C561.112 470.11 558.732 567.531 536.059 666.4C527.95 701.716 514.718 741.094 483.371 769.532C438.429 810.319 368.273 780.393 329.019 824.437C302.837 853.76 314.092 891.53 284.117 903.436C256.483 914.377 223.401 896.115 203.19 884.209C196.977 880.549 191.409 876.808 186.488 873.268C150.744 847.646 133.114 814.261 125.166 796.965" stroke="#2D8E68" stroke-width="2" stroke-miterlimit="10"/>
<path d="M6.59871 828.419C64.168 670.864 74.4958 508.08 57.5115 337.292C56.866 330.695 55.7767 324.179 54.8488 317.703C37.9452 198.28 5.95323 104.6 25.6809 72.4617C50.048 32.7613 124.279 83.3622 203.755 174.589C232.075 207.089 242.322 258.052 270.038 299.764C279.68 314.284 290.048 327.156 304.208 336.206C381.062 385.359 465.822 345.055 519.438 409.614C561.354 460.094 557.481 561.618 533.638 666.842C525.449 703.043 512.297 744.473 479.377 774.761C436.089 814.622 368.071 787.673 329.181 830.39C303.482 858.627 313.164 894.908 283.633 905.969C255.555 916.468 222.595 897.804 202.504 885.616C196.291 881.835 190.724 877.974 185.883 874.434C150.179 848.249 132.912 814.421 125.166 797.045" stroke="#2E9470" stroke-width="2" stroke-miterlimit="10"/>
<path d="M6.59891 828.419C70.9459 668.331 82.1612 507.839 64.0876 342.441C63.3614 335.885 62.1914 329.449 61.1829 323.054C42.7865 205.682 7.40576 116.064 25.5197 81.3516C48.4748 37.3875 129.362 78.7773 206.74 166.585C234.899 198.522 241.798 251.416 267.254 294.415C276.17 309.458 285.973 322.852 300.094 332.064C375.293 381.257 462.756 336.126 517.945 399.679C561.677 450.039 556.231 555.665 531.258 667.325C522.948 704.411 509.917 747.852 475.424 780.031C433.75 818.927 367.91 794.994 329.423 836.384C304.168 863.534 312.317 898.327 283.23 908.544C254.708 918.56 221.909 899.574 201.899 887.065C195.646 883.163 190.119 879.181 185.318 875.601C149.655 848.853 132.792 814.623 125.247 797.085" stroke="#2F9A78" stroke-width="2" stroke-miterlimit="10"/>
<path d="M6.59886 828.419C77.7234 665.837 89.7456 507.558 70.6231 347.59C69.8565 341.074 68.5656 334.718 67.436 328.363C47.5066 213.043 8.65636 127.488 25.2373 90.2008C46.6594 41.973 134.284 74.1517 209.564 158.5C237.562 189.874 241.112 244.739 264.309 288.944C272.459 304.511 281.738 318.388 295.858 327.8C369.443 377.033 459.609 327.076 516.332 389.663C561.879 439.902 554.859 549.672 528.757 667.727C520.366 705.698 507.416 751.15 471.39 785.22C431.289 823.11 367.708 802.234 329.544 842.256C304.733 868.321 311.349 901.586 282.706 910.958C253.699 920.491 221.102 901.143 201.173 888.352C194.879 884.33 189.393 880.267 184.632 876.647C149.05 849.336 132.509 814.703 125.167 797.045" stroke="#2FA080" stroke-width="2" stroke-miterlimit="10"/>
<path d="M6.59847 828.419C84.5006 663.302 97.2893 507.316 77.1582 352.778C76.311 346.302 74.9393 340.027 73.7291 333.752C52.307 220.484 9.94694 138.991 25.0352 99.1298C44.8839 46.6384 139.327 69.5657 212.509 150.535C240.345 181.346 240.547 238.142 261.485 283.634C268.908 299.764 277.622 314.043 291.702 323.697C363.593 372.89 456.503 318.146 514.798 379.728C562.201 429.806 553.568 543.758 526.336 668.169C517.824 707.025 504.954 754.488 467.395 790.408C428.868 827.293 367.506 809.474 329.705 848.168C305.338 873.147 310.421 904.843 282.221 913.451C252.771 922.461 220.295 902.832 200.487 889.679C194.193 885.496 188.666 881.353 184.027 877.692C148.484 849.818 132.307 814.783 125.166 796.964" stroke="#30A688" stroke-width="2" stroke-miterlimit="10"/>
<path d="M6.59852 828.42C91.2783 660.769 104.793 507.075 83.6938 357.927C82.7659 351.492 81.3136 345.257 80.0226 339.063C57.1079 227.845 11.1573 150.415 24.7932 107.98C42.9878 51.2244 144.37 64.9003 215.373 142.451C243.089 172.699 239.902 231.465 258.58 278.205C265.237 294.857 273.427 309.619 287.466 319.474C357.784 368.707 453.437 309.136 513.225 369.753C562.483 419.71 552.236 537.766 523.916 668.612C515.323 708.393 502.494 757.787 463.442 795.637C426.447 831.476 367.345 816.755 329.947 854.122C306.024 878.015 309.533 908.142 281.818 915.986C251.883 924.473 219.609 904.522 199.881 891.087C193.548 886.783 188.061 882.52 183.462 878.86C147.96 850.422 132.146 814.985 125.207 797.045" stroke="#30AC90" stroke-width="2" stroke-miterlimit="10"/>
<path d="M6.59859 828.419C98.056 658.274 112.216 506.834 90.2294 363.075C89.2612 356.68 87.6879 350.526 86.3162 344.412C61.9087 235.246 12.3677 161.878 24.5512 116.869C41.0515 55.89 149.412 60.2744 218.278 134.446C245.832 164.131 239.256 224.868 255.716 272.814C261.606 290.03 269.271 305.234 283.311 315.29C352.015 364.524 450.371 300.086 511.692 359.817C562.806 409.574 550.905 531.812 521.495 669.054C512.781 709.72 499.992 761.085 459.448 800.866C423.986 835.659 367.183 824.035 330.108 860.075C306.669 882.881 308.565 911.4 281.334 918.519C250.875 926.484 218.843 906.211 199.196 892.495C192.862 888.07 187.375 883.726 182.857 879.985C147.436 850.984 131.944 815.145 125.247 797.045" stroke="#31B198" stroke-width="2" stroke-miterlimit="10"/>
<path d="M6.59832 828.419C104.833 655.74 119.599 506.592 96.7648 368.264C95.7159 361.949 94.0618 355.835 92.5691 349.761C66.7093 242.647 13.4969 173.382 24.3089 125.758C39.0744 60.5557 154.455 55.6082 221.142 126.401C248.575 155.523 238.57 218.231 252.811 267.424C257.935 285.163 265.075 300.85 279.074 311.107C346.205 360.3 447.304 291.076 510.118 349.842C563.129 399.437 549.533 525.859 519.074 669.497C510.239 711.047 497.491 764.343 455.454 806.055C421.485 839.762 366.982 831.315 330.31 865.987C307.314 887.708 307.637 914.618 280.89 921.013C249.947 928.414 218.116 907.86 198.55 893.862C192.176 889.317 186.729 884.852 182.251 881.111C146.911 851.507 131.782 815.266 125.247 797.045" stroke="#32B7A0" stroke-width="2" stroke-miterlimit="10"/>
<path d="M6.59864 828.419C111.611 653.206 126.942 506.391 103.301 373.413C102.171 367.138 100.436 361.105 98.8629 355.111C71.5507 250.008 14.6672 184.926 24.0671 134.647C37.0575 65.2218 159.539 50.9426 224.047 118.397C251.359 146.956 237.925 211.635 249.947 262.075C254.304 280.336 260.92 296.466 274.919 306.964C340.477 356.117 444.319 282.066 508.585 339.947C563.452 389.382 548.202 519.987 516.614 669.979C507.698 712.415 494.909 767.642 451.46 811.324C418.984 843.945 366.82 838.636 330.471 871.981C307.96 892.615 306.669 917.876 280.406 923.587C248.979 930.385 217.35 909.63 197.824 895.27C191.45 890.604 186.004 886.019 181.566 882.238C146.266 852.07 131.5 815.427 125.166 797.085" stroke="#32BDA8" stroke-width="2" stroke-miterlimit="10"/>
<path d="M6.59832 828.42C118.389 650.713 134.203 506.15 109.836 378.562C108.626 372.327 106.81 366.334 105.156 360.421C76.4319 257.369 15.7965 196.39 23.8651 143.497C35.0401 69.888 164.662 46.2367 226.951 110.312C254.142 138.268 237.239 204.958 247.082 256.605C250.673 275.429 256.765 292.001 270.723 302.701C334.707 351.773 441.293 272.895 507.012 329.892C563.815 379.125 546.83 513.954 514.193 670.382C505.156 713.703 492.367 770.82 447.466 816.513C416.482 848.048 366.659 845.917 330.633 877.894C308.605 897.443 305.701 921.054 279.921 926.082C247.97 932.276 216.543 911.28 197.138 896.638C190.764 891.811 185.317 887.146 180.96 883.365C145.741 852.594 131.298 815.588 125.166 797.086" stroke="#33C3B0" stroke-width="2" stroke-miterlimit="10"/>
<path d="M6.59846 828.419C125.166 648.179 141.384 505.949 116.372 383.75C115.121 377.556 113.184 371.643 111.45 365.811C81.3135 264.81 16.9263 207.975 23.6232 152.386C32.9827 74.5941 169.745 41.5305 229.856 102.268C256.926 129.66 236.553 198.321 244.218 251.215C247.042 270.562 252.61 287.577 266.568 298.517C328.979 347.509 438.308 263.805 505.479 319.916C564.137 368.948 545.459 507.96 511.772 670.784C502.614 715.03 489.785 773.957 443.512 821.702C414.021 852.111 366.538 853.197 330.875 883.767C309.332 902.269 304.773 924.191 279.478 928.495C247.002 934.046 215.817 912.848 196.493 897.925C190.078 892.978 184.672 888.231 180.355 884.37C145.217 852.996 131.097 815.628 125.207 797.005" stroke="#33C9B8" stroke-width="2" stroke-miterlimit="10"/>
<path d="M6.59885 828.419C131.944 645.645 148.525 505.748 122.907 388.899C121.576 382.745 119.559 376.913 117.703 371.12C86.1551 272.131 18.0159 219.519 23.3815 161.235C30.9257 79.3002 174.91 36.7842 232.761 94.2633C259.71 121.052 235.868 191.684 241.354 245.865C243.371 265.776 248.495 283.232 262.373 294.374C323.21 343.286 435.283 254.754 503.946 310.021C564.501 358.772 544.087 502.007 509.352 671.227C500.073 716.357 487.164 777.135 439.519 826.891C411.48 856.214 366.377 860.477 331.037 889.679C309.978 907.096 303.805 927.328 278.994 930.989C246.034 935.896 215.051 914.497 195.807 899.293C189.393 894.225 183.987 889.358 179.751 885.456C144.693 853.519 130.936 815.749 125.207 796.965" stroke="#34CFC0" stroke-width="2" stroke-miterlimit="10"/>
<path d="M6.59858 828.419C138.722 643.15 155.625 505.546 129.443 394.088C128.031 387.974 125.933 382.182 123.996 376.51C91.0363 279.572 19.1049 231.143 23.1392 170.164C28.8276 84.0866 180.033 32.0778 235.625 86.2586C262.494 112.444 235.141 185.087 238.449 240.475C239.7 260.908 244.299 278.808 258.137 290.191C317.441 338.982 432.216 245.623 502.332 300.046C564.823 348.555 542.675 496.054 506.851 671.709C497.451 717.724 484.42 780.272 435.444 832.16C408.858 860.356 366.175 867.838 331.157 895.672C310.582 912.043 302.796 930.506 278.469 933.563C244.985 937.746 214.244 916.227 195.081 900.7C188.626 895.471 183.26 890.524 179.065 886.622C144.087 854.082 130.653 815.91 125.126 797.045" stroke="#35D5C8" stroke-width="2" stroke-miterlimit="10"/>
<path d="M6.59838 828.419C145.499 640.617 162.645 505.386 135.978 399.236C134.445 393.203 132.307 387.451 130.29 381.82C95.9579 286.893 20.2343 242.687 22.8969 179.014C26.7295 88.7928 185.196 27.2914 238.53 78.1739C265.317 103.716 234.415 178.41 235.585 235.045C236.029 256.001 240.143 274.343 253.981 285.968C311.793 334.638 429.271 236.453 500.799 290.07C565.227 338.338 541.303 490.061 504.47 672.111C494.99 719.012 481.757 783.329 431.53 837.349C406.356 864.419 366.134 875.159 331.399 901.585C311.308 916.91 301.908 933.603 278.066 936.057C244.057 939.516 213.557 917.876 194.475 902.068C188.02 896.718 182.655 891.65 178.5 887.708C143.603 854.564 130.491 816.03 125.166 797.005" stroke="#35DBCF" stroke-width="2" stroke-miterlimit="10"/>
<path d="M6.59868 828.419C152.277 638.082 169.584 505.265 142.554 404.385C140.941 398.392 138.722 392.72 136.584 387.169C100.88 294.253 21.3238 254.271 22.6955 187.903C24.6319 93.5793 190.441 22.5047 241.435 70.1693C268.142 95.1078 233.689 171.773 232.721 229.695C232.358 251.174 236.029 269.959 249.786 281.824C306.064 330.374 426.286 227.362 499.266 280.135C565.63 328.121 539.932 484.148 502.05 672.594C492.448 720.379 479.014 786.426 427.537 842.578C403.815 868.482 365.973 882.479 331.561 907.538C311.954 921.777 300.9 936.741 277.582 938.591C243.089 941.286 212.791 919.565 193.79 903.476C187.295 898.005 181.969 892.857 177.895 888.875C143.119 855.127 130.29 816.231 125.207 797.085" stroke="#36E1D7" stroke-width="2" stroke-miterlimit="10"/>
<path d="M6.59881 828.419C159.055 635.589 176.523 505.145 149.09 409.574C147.396 403.621 145.096 398.03 142.877 392.519C105.842 301.574 22.4132 265.896 22.4536 196.793C22.5343 98.3661 195.605 17.7183 244.34 62.1249C270.966 86.4198 232.963 165.097 229.897 224.265C228.767 246.267 231.954 265.494 245.671 277.601C300.416 325.99 423.301 218.151 497.733 270.12C566.034 317.825 538.238 478.034 499.63 672.996C489.826 721.667 476.19 789.362 423.543 847.767C401.233 872.544 365.893 889.84 331.763 913.451C312.68 926.685 300.013 939.838 277.138 941.085C242.121 943.016 212.106 921.215 193.144 904.844C186.649 899.212 181.324 893.983 177.29 889.961C142.595 855.57 130.129 816.352 125.207 797.045" stroke="#37E7DF" stroke-width="2" stroke-miterlimit="10"/>
<path d="M6.59837 828.419C165.832 633.054 183.341 505.064 155.625 414.722C153.81 408.809 151.51 403.258 149.17 397.868C110.804 308.935 23.502 277.52 22.2514 205.681C20.3956 103.152 200.849 12.8508 247.203 54.0797C273.789 77.6908 232.196 158.419 226.992 218.875C225.055 241.44 227.799 261.069 241.434 273.418C294.768 321.685 420.315 209.02 496.16 260.184C566.397 307.567 536.906 472.121 497.168 673.438C487.244 722.994 473.245 792.298 419.548 852.995C398.651 876.647 365.771 897.201 331.924 919.364C313.325 931.551 299.044 942.894 276.654 943.538C241.152 944.624 211.339 922.823 192.458 906.17C185.963 900.419 180.638 895.069 176.644 891.047C142.07 856.052 129.886 816.473 125.166 797.045" stroke="#37EDE7" stroke-width="2" stroke-miterlimit="10"/>
<path d="M6.59858 828.419C172.61 630.52 190.159 505.024 162.161 419.871C160.224 414.038 157.884 408.528 155.464 403.178C115.766 316.215 24.5915 289.105 22.0096 214.531C18.298 107.939 206.094 8.02425 250.149 46.0353C276.694 68.9626 231.51 151.742 224.168 213.485C221.425 236.573 223.684 256.645 237.279 269.235C289.12 317.342 417.37 199.809 494.627 250.209C566.8 297.27 535.615 466.168 494.788 673.881C484.783 724.321 470.3 795.154 415.595 858.225C396.069 880.709 365.691 904.602 332.166 925.317C314.092 936.499 298.157 945.952 276.251 946.072C240.265 946.273 210.693 924.472 191.853 907.538C185.358 901.626 180.033 896.195 176.119 892.133C141.626 856.535 129.765 816.553 125.247 797.005" stroke="#38F3EF" stroke-width="2" stroke-miterlimit="10"/>
<path d="M6.59858 828.419C179.387 628.027 196.896 505.024 168.696 425.06C166.679 419.268 164.259 413.797 161.717 408.568C120.85 323.456 25.6404 300.73 21.7675 223.42C16.1599 112.766 211.339 3.11724 253.013 37.9909C279.559 60.2344 230.623 145.025 221.263 208.055C217.673 231.626 219.569 252.14 233.084 265.011C283.472 312.917 414.385 190.598 493.094 240.234C567.204 286.973 534.284 460.175 492.327 674.324C482.242 725.689 467.153 797.93 411.601 863.414C393.487 884.772 365.61 912.003 332.327 931.23C314.738 941.407 297.229 949.009 275.766 948.566C239.296 947.842 209.887 926.122 191.167 908.906C184.632 902.873 179.347 897.322 175.474 893.259C141.183 856.978 129.523 816.714 125.247 797.045" stroke="#38F9F7" stroke-width="2" stroke-miterlimit="10"/>
<path d="M6.59835 828.419C186.165 625.493 203.593 505.064 175.232 430.208C138.399 332.908 27.0522 317.382 21.5253 232.31C14.0618 117.593 216.624 -1.79017 255.918 29.9863C292.428 59.5102 179.548 212.761 228.888 260.868C277.864 308.613 411.359 181.427 491.52 230.298C567.607 276.716 532.952 454.262 489.906 674.766C479.7 727.016 463.926 800.625 407.607 868.643C382.231 899.293 337.007 953.916 275.282 951.1C225.418 948.848 189.553 910.233 174.828 894.385C140.577 857.541 129.281 816.875 125.207 797.045" stroke="#39FFFF" stroke-width="2" stroke-miterlimit="10"/>
</svg>
