<svg width="350" height="343" viewBox="0 0 350 343" fill="none" xmlns="http://www.w3.org/2000/svg">
<g opacity="0.4">
<path d="M175.089 40.6036C248.867 40.6036 308.664 99.2143 308.664 171.5C308.664 243.786 248.867 302.396 175.089 302.396C101.312 302.396 41.5147 243.786 41.5147 171.5C41.5147 99.2143 101.312 40.6036 175.089 40.6036Z" stroke="#54BF74" stroke-width="0.676767"/>
<path d="M175.089 40.6036C248.867 40.6036 308.664 99.2143 308.664 171.5C308.664 243.786 248.867 302.396 175.089 302.396C101.312 302.396 41.5147 243.786 41.5147 171.5C41.5147 99.2143 101.312 40.6036 175.089 40.6036Z" stroke="url(#paint0_linear_1_931)" stroke-opacity="0.8" stroke-width="0.676767"/>
</g>
<g opacity="0.4">
<path d="M175 0.338402C271.469 0.338398 349.662 76.9765 349.662 171.5C349.662 266.023 271.469 342.662 175 342.662C78.5306 342.662 0.33838 266.023 0.338376 171.5C0.338372 76.9765 78.5306 0.338406 175 0.338402Z" stroke="#54BF74" stroke-width="0.676767"/>
<path d="M175 0.338402C271.469 0.338398 349.662 76.9765 349.662 171.5C349.662 266.023 271.469 342.662 175 342.662C78.5306 342.662 0.33838 266.023 0.338376 171.5C0.338372 76.9765 78.5306 0.338406 175 0.338402Z" stroke="url(#paint1_linear_1_931)" stroke-opacity="0.8" stroke-width="0.676767"/>
</g>
<g opacity="0.4">
<path d="M174.835 268.096C120.387 268.096 76.2601 224.842 76.2601 171.5C76.2601 118.158 120.387 74.9036 174.835 74.9036C229.282 74.9036 273.409 118.158 273.409 171.5C273.409 224.842 229.282 268.096 174.835 268.096Z" stroke="#54BF74" stroke-width="0.676767"/>
<path d="M174.835 268.096C120.387 268.096 76.2601 224.842 76.2601 171.5C76.2601 118.158 120.387 74.9036 174.835 74.9036C229.282 74.9036 273.409 118.158 273.409 171.5C273.409 224.842 229.282 268.096 174.835 268.096Z" stroke="url(#paint2_linear_1_931)" stroke-opacity="0.8" stroke-width="0.676767"/>
</g>
<defs>
<linearGradient id="paint0_linear_1_931" x1="41.1763" y1="171.5" x2="309.002" y2="171.5" gradientUnits="userSpaceOnUse">
<stop stop-color="#E5E5E5"/>
<stop offset="1" stop-opacity="0"/>
</linearGradient>
<linearGradient id="paint1_linear_1_931" x1="-7.73691e-06" y1="171.5" x2="350" y2="171.5" gradientUnits="userSpaceOnUse">
<stop stop-color="#E5E5E5"/>
<stop offset="1" stop-opacity="0"/>
</linearGradient>
<linearGradient id="paint2_linear_1_931" x1="273.748" y1="171.5" x2="75.9217" y2="171.5" gradientUnits="userSpaceOnUse">
<stop stop-color="#E5E5E5"/>
<stop offset="1" stop-opacity="0"/>
</linearGradient>
</defs>
</svg>
