<svg width="338" height="344" viewBox="0 0 338 344" fill="none" xmlns="http://www.w3.org/2000/svg">
<g opacity="0.4">
<path d="M169.086 40.721C240.316 40.721 298.07 99.491 298.07 172C298.07 244.509 240.316 303.279 169.086 303.279C97.8564 303.279 40.103 244.509 40.103 172C40.103 99.491 97.8564 40.721 169.086 40.721Z" stroke="#54BF74" stroke-width="0.676767"/>
<path d="M169.086 40.721C240.316 40.721 298.07 99.491 298.07 172C298.07 244.509 240.316 303.279 169.086 303.279C97.8564 303.279 40.103 244.509 40.103 172C40.103 99.491 97.8564 40.721 169.086 40.721Z" stroke="url(#paint0_linear_1_931)" stroke-opacity="0.8" stroke-width="0.676767"/>
</g>
<g opacity="0.4">
<path d="M169 0.338402C262.144 0.338398 337.662 77.1883 337.662 172C337.662 266.812 262.144 343.662 169 343.662C75.8563 343.662 0.33838 266.812 0.338376 172C0.338372 77.1883 75.8563 0.338406 169 0.338402Z" stroke="#54BF74" stroke-width="0.676767"/>
<path d="M169 0.338402C262.144 0.338398 337.662 77.1883 337.662 172C337.662 266.812 262.144 343.662 169 343.662C75.8563 343.662 0.33838 266.812 0.338376 172C0.338372 77.1883 75.8563 0.338406 169 0.338402Z" stroke="url(#paint1_linear_1_931)" stroke-opacity="0.8" stroke-width="0.676767"/>
</g>
<g opacity="0.4">
<path d="M168.84 268.879C116.278 268.879 73.657 225.51 73.657 172C73.657 118.49 116.278 75.121 168.84 75.121C221.403 75.121 264.024 118.49 264.024 172C264.024 225.51 221.403 268.879 168.84 268.879Z" stroke="#54BF74" stroke-width="0.676767"/>
<path d="M168.84 268.879C116.278 268.879 73.657 225.51 73.657 172C73.657 118.49 116.278 75.121 168.84 75.121C221.403 75.121 264.024 118.49 264.024 172C264.024 225.51 221.403 268.879 168.84 268.879Z" stroke="url(#paint2_linear_1_931)" stroke-opacity="0.8" stroke-width="0.676767"/>
</g>
<defs>
<linearGradient id="paint0_linear_1_931" x1="39.7646" y1="172" x2="298.408" y2="172" gradientUnits="userSpaceOnUse">
<stop stop-color="#E5E5E5"/>
<stop offset="1" stop-opacity="0"/>
</linearGradient>
<linearGradient id="paint1_linear_1_931" x1="-7.47465e-06" y1="172" x2="338" y2="172" gradientUnits="userSpaceOnUse">
<stop stop-color="#E5E5E5"/>
<stop offset="1" stop-opacity="0"/>
</linearGradient>
<linearGradient id="paint2_linear_1_931" x1="264.362" y1="172" x2="73.3186" y2="172" gradientUnits="userSpaceOnUse">
<stop stop-color="#E5E5E5"/>
<stop offset="1" stop-opacity="0"/>
</linearGradient>
</defs>
</svg>
