<svg width="375" height="587" viewBox="0 0 375 587" fill="none" xmlns="http://www.w3.org/2000/svg">
<path d="M-6.40142 544.419C-2.93192 402.552 -1.39888 214.025 -8.41854 -9.05373C-12.6949 -144.848 -19.4725 -273.924 14.5769 -282.572C59.5593 -294.036 85.0963 -72.325 280.033 58.9237C394.486 135.951 472.509 120.908 518.863 205.337C561.95 283.812 556.463 403.517 498.288 449.09C440.356 494.462 356.765 445.631 314.728 498.967C285.52 536.013 306.902 583.597 274.385 601.939C249.574 615.936 215.767 600.29 194.91 590.676C148.031 569.036 122.978 531.789 112.207 513.045" stroke="#296431" stroke-width="2" stroke-miterlimit="10"/>
<path d="M-6.40169 544.419C3.72439 404.482 6.50803 225.69 -1.2378 17.1317C-1.47986 10.2133 -1.80258 3.25466 -2.12533 -3.70398C-7.85401 -137.487 -18.0205 -261.696 14.3346 -273.723C47.2947 -285.951 76.9871 -168.861 170.502 -53.1787C200.033 -16.857 233.316 21.0736 277.169 53.5338C291.975 64.5148 306.296 73.8064 320.537 81.5292C409.211 129.717 475.454 123.522 517.33 195.361C547.063 246.445 553.235 319.209 537.663 379.785C529.998 409.671 516.16 436.661 494.294 454.279C438.46 499.329 356.604 452.911 314.889 504.88C286.165 540.839 306.095 587.056 273.901 604.432C248.727 617.988 215 601.979 194.224 592.044C188.172 589.107 182.484 585.97 177.199 582.672C141.253 560.227 121.364 529.496 112.206 513.005" stroke="#2A6A39" stroke-width="2" stroke-miterlimit="10"/>
<path d="M-6.40125 544.419C10.5024 401.988 14.5367 225.448 5.29822 22.3206C4.97548 15.4424 4.53169 8.56425 4.1686 1.64584C-3.29483 -130.086 -16.4063 -249.589 14.1333 -264.793C45.8428 -280.601 81.7076 -173.205 173.447 -61.183C202.736 -25.3842 232.792 14.3564 274.345 48.144C288.425 59.6076 302.182 69.4624 316.382 77.3461C403.362 125.735 472.187 114.633 515.797 185.426C547.184 236.389 552.025 313.256 535.202 380.228C527.456 411.039 513.74 440.08 490.301 459.508C436.483 504.075 356.322 460.111 315.091 510.833C286.73 545.666 305.328 590.555 273.457 606.967C247.92 620.12 214.234 603.708 193.579 593.451C187.487 590.394 181.839 587.177 176.594 583.838C140.649 560.911 121.163 529.697 112.207 513.085" stroke="#2A7041" stroke-width="2" stroke-miterlimit="10"/>
<path d="M-6.40114 544.419C17.2802 399.454 22.4844 225.247 11.8339 27.4691C11.4708 20.6311 10.906 13.8333 10.4219 6.99537C1.34471 -122.685 -14.7925 -237.603 13.851 -255.904C44.3503 -275.413 86.5893 -177.75 176.272 -69.1876C205.399 -33.952 232.147 7.63896 271.4 42.7941C284.754 54.7405 297.946 65.1181 312.147 73.203C397.391 121.793 468.838 105.784 514.184 175.491C547.346 226.333 550.815 307.343 532.782 380.67C524.996 412.366 511.36 443.539 486.307 464.737C434.386 508.701 356.12 467.392 315.253 516.786C287.336 550.533 304.481 594.015 272.974 609.501C247.033 622.211 213.427 605.438 192.893 594.819C186.761 591.641 181.153 588.303 175.989 584.924C140.084 561.474 120.961 529.778 112.207 513.045" stroke="#2B7649" stroke-width="2" stroke-miterlimit="10"/>
<path d="M-6.40143 544.419C24.0575 396.92 30.3913 225.006 18.3691 32.6178C17.9657 25.8201 17.2799 19.0626 16.7151 12.305C6.06453 -115.324 -13.1387 -225.777 13.649 -247.055C43.0187 -270.384 91.5109 -182.336 179.216 -77.2723C208.183 -42.5596 231.662 0.841407 268.576 37.324C281.203 49.7932 293.79 60.6937 307.991 68.9395C391.541 117.69 465.57 96.8143 512.651 165.475C547.507 216.318 549.564 301.39 530.361 381.113C522.494 413.734 508.979 446.958 482.353 469.926C432.247 513.166 355.918 474.632 315.495 522.659C288.021 555.28 303.715 597.393 272.57 611.914C246.226 624.222 212.741 607.047 192.287 596.106C186.155 592.808 180.507 589.349 175.424 585.97C139.559 561.997 120.8 529.858 112.247 513.005" stroke="#2B7C51" stroke-width="2" stroke-miterlimit="10"/>
<path d="M-6.40167 544.419C30.8349 394.427 38.2176 224.765 24.9044 37.8066C24.4203 31.0491 23.6538 24.372 23.0083 17.6949C10.7844 -107.882 -11.5252 -214.032 13.4067 -238.125C41.6064 -265.397 96.4324 -186.841 182.08 -85.2365C210.885 -51.1674 231.057 -5.8759 265.671 31.934C277.532 44.8859 289.594 56.3093 303.795 64.7562C385.651 113.628 462.383 87.8846 511.117 155.5C547.708 206.262 548.313 295.437 527.94 381.555C519.993 415.061 506.558 450.337 478.359 475.155C430.028 517.631 355.716 481.912 315.656 528.612C288.626 560.147 302.827 600.812 272.085 614.448C245.338 626.314 211.934 608.777 191.601 597.514C185.429 594.095 179.821 590.555 174.819 587.096C138.994 562.56 120.638 530.019 112.287 513.005" stroke="#2C8259" stroke-width="2" stroke-miterlimit="10"/>
<path d="M-6.40109 544.419C37.613 391.892 46.0447 224.563 31.4406 42.9549C30.9161 36.2778 30.0286 29.641 29.3024 23.0041C15.5051 -100.522 -9.95125 -202.448 13.2056 -229.317C40.195 -260.691 101.395 -191.467 185.026 -93.362C213.669 -59.7755 230.533 -12.5935 262.848 26.5438C273.982 40.0186 285.48 51.9247 299.64 60.5727C379.802 109.565 459.156 78.9548 509.544 145.524C547.911 196.206 547.063 289.484 525.48 381.957C517.452 416.348 504.138 453.715 474.325 480.343C427.729 521.974 355.475 489.152 315.777 534.524C289.191 564.973 301.899 604.191 271.521 616.942C244.33 628.365 211.088 610.425 190.795 598.881C184.623 595.342 179.015 591.681 174.053 588.222C138.269 563.163 120.276 530.18 112.126 513.045" stroke="#2D8861" stroke-width="2" stroke-miterlimit="10"/>
<path d="M-6.40148 544.419C44.3903 389.358 53.7902 224.322 37.9758 48.1038C37.3706 41.4669 36.4024 34.8703 35.5552 28.3541C20.2249 -93.1203 -8.45897 -190.903 12.9228 -220.427C38.6616 -255.944 106.317 -196.052 187.85 -101.366C216.332 -68.3025 229.887 -19.2703 259.902 21.1541C270.311 35.1519 281.244 47.5406 295.364 56.3898C373.871 105.462 455.928 70.0255 507.971 135.549C548.112 186.11 545.732 283.531 523.059 382.4C514.95 417.716 501.718 457.094 470.371 485.532C425.429 526.319 355.273 496.393 316.019 540.437C289.837 569.76 301.092 607.53 271.117 619.436C243.483 630.377 210.401 612.115 190.19 600.209C183.977 596.549 178.409 592.808 173.488 589.268C137.744 563.646 120.114 530.261 112.166 512.965" stroke="#2D8E68" stroke-width="2" stroke-miterlimit="10"/>
<path d="M-6.40126 544.419C51.1681 386.864 61.4958 224.08 44.5115 53.2921C43.866 46.6954 42.7768 40.1793 41.8489 33.7033C24.9452 -85.7197 -7.04674 -179.4 12.6809 -211.538C37.0481 -251.239 111.279 -200.638 190.755 -109.411C219.075 -76.9108 229.322 -25.9479 257.038 15.7637C266.68 30.2843 277.048 43.1558 291.208 52.2061C368.062 101.359 452.822 61.0552 506.438 125.614C548.354 176.094 544.481 277.618 520.638 382.842C512.449 419.043 499.297 460.473 466.377 490.761C423.089 530.622 355.071 503.673 316.181 546.39C290.482 574.627 300.164 610.908 270.633 621.969C242.555 632.468 209.595 613.804 189.504 601.616C183.291 597.835 177.724 593.974 172.883 590.434C137.179 564.249 119.912 530.421 112.166 513.045" stroke="#2E9470" stroke-width="2" stroke-miterlimit="10"/>
<path d="M-6.40107 544.419C57.9459 384.331 69.1612 223.839 51.0876 58.4412C50.3614 51.8848 49.1914 45.449 48.1829 39.0535C29.7865 -78.3181 -5.59422 -167.936 12.5197 -202.648C35.4749 -246.613 116.362 -205.223 193.74 -117.415C221.899 -85.4779 228.798 -32.5842 254.254 10.4145C263.17 25.4581 272.974 38.8524 287.094 48.0636C362.293 97.2567 449.756 52.1261 504.945 115.679C548.677 166.039 543.231 271.665 518.258 383.325C509.948 420.411 496.917 463.852 462.424 496.031C420.75 534.927 354.91 510.994 316.423 552.384C291.168 579.534 299.317 614.327 270.23 624.544C241.708 634.56 208.909 615.574 188.899 603.065C182.646 599.163 177.119 595.181 172.318 591.601C136.655 564.853 119.792 530.623 112.247 513.085" stroke="#2F9A78" stroke-width="2" stroke-miterlimit="10"/>
<path d="M-6.40112 544.419C64.7234 381.837 76.7456 223.558 57.6231 63.5898C56.8566 57.0736 55.5656 50.7184 54.436 44.3631C34.5066 -70.9572 -4.34362 -156.512 12.2373 -193.799C33.6594 -242.027 121.284 -209.848 196.564 -125.5C224.562 -94.1258 228.112 -39.2612 251.309 4.94424C259.459 20.5107 268.738 34.3877 282.858 43.8C356.443 93.0333 446.609 43.0759 503.332 105.663C548.879 155.902 541.859 265.672 515.757 383.727C507.366 421.698 494.416 467.15 458.39 501.22C418.289 539.11 354.708 518.234 316.544 558.256C291.733 584.321 298.349 617.586 269.706 626.958C240.699 636.491 208.102 617.143 188.173 604.352C181.879 600.33 176.393 596.267 171.632 592.647C136.05 565.336 119.509 530.703 112.167 513.045" stroke="#2FA080" stroke-width="2" stroke-miterlimit="10"/>
<path d="M-6.40152 544.419C71.5007 379.302 84.2893 223.316 64.1582 68.7781C63.311 62.3021 61.9394 56.0273 60.7291 49.7525C39.307 -63.5164 -3.05304 -145.009 12.0352 -184.87C31.8839 -237.362 126.327 -214.434 199.509 -133.465C227.345 -102.654 227.547 -45.8583 248.485 -0.365775C255.908 15.7638 264.622 30.043 278.702 39.6966C350.593 88.8898 443.503 34.1458 501.798 95.7277C549.201 145.806 540.568 259.758 513.336 384.169C504.824 423.025 491.954 470.488 454.395 506.408C415.868 543.293 354.506 525.474 316.705 564.168C292.338 589.147 297.421 620.843 269.221 629.451C239.771 638.461 207.295 618.832 187.487 605.679C181.193 601.496 175.666 597.353 171.027 593.692C135.485 565.818 119.307 530.783 112.166 512.964" stroke="#30A688" stroke-width="2" stroke-miterlimit="10"/>
<path d="M-6.40147 544.42C78.2783 376.769 91.7932 223.075 70.6938 73.9273C69.7659 67.4916 68.3136 61.2569 67.0226 55.0625C44.1079 -56.155 -1.8427 -133.585 11.7932 -176.02C29.9879 -232.776 131.37 -219.1 202.373 -141.549C230.089 -111.301 226.902 -52.5348 245.58 -5.79534C252.237 10.8571 260.427 25.6191 274.466 35.4738C344.784 84.7071 440.437 25.1364 500.225 85.7529C549.483 135.71 539.236 253.766 510.916 384.612C502.323 424.393 489.494 473.787 450.442 511.637C413.447 547.476 354.345 532.755 316.947 570.122C293.024 594.015 296.533 624.142 268.818 631.986C238.883 640.473 206.609 620.522 186.881 607.087C180.548 602.784 175.061 598.52 170.462 594.86C134.96 566.422 119.146 530.985 112.207 513.045" stroke="#30AC90" stroke-width="2" stroke-miterlimit="10"/>
<path d="M-6.40139 544.419C85.056 374.274 99.2163 222.834 77.2295 79.0755C76.2612 72.68 74.6879 66.5258 73.3162 60.4119C48.9088 -48.7542 -0.632322 -122.122 11.5512 -167.131C28.0515 -228.11 136.413 -223.726 205.278 -149.554C232.832 -119.869 226.256 -59.1318 242.716 -11.1857C248.606 6.02993 256.271 21.2344 270.311 31.2902C339.015 80.5235 437.371 16.0858 498.692 75.8174C549.806 125.574 537.905 247.812 508.495 385.054C499.781 425.72 486.992 477.085 446.448 516.866C410.986 551.659 354.184 540.035 317.108 576.075C293.669 598.881 295.565 627.4 268.334 634.519C237.875 642.484 205.843 622.211 186.196 608.495C179.862 604.07 174.375 599.726 169.857 595.985C134.436 566.984 118.944 531.145 112.247 513.045" stroke="#31B198" stroke-width="2" stroke-miterlimit="10"/>
<path d="M-6.40167 544.419C91.8334 371.74 106.599 222.592 83.7648 84.2641C82.7159 77.949 81.0618 71.8351 79.5691 65.7613C53.7093 -41.3533 0.496956 -110.618 11.3089 -158.242C26.0744 -223.444 141.455 -228.392 208.142 -157.599C235.575 -128.477 225.57 -65.7689 239.811 -16.5758C244.935 1.16273 252.075 16.8498 266.074 27.1068C333.205 76.2999 434.304 7.07554 497.118 65.8418C550.129 115.437 536.533 241.859 506.074 385.497C497.239 427.047 484.491 480.343 442.454 522.055C408.485 555.762 353.982 547.315 317.31 581.987C294.314 603.708 294.637 630.617 267.89 637.013C236.947 644.414 205.116 623.86 185.55 609.862C179.176 605.317 173.729 600.852 169.251 597.111C133.911 567.507 118.782 531.266 112.247 513.045" stroke="#32B7A0" stroke-width="2" stroke-miterlimit="10"/>
<path d="M-6.40134 544.419C98.6112 369.206 113.942 222.391 90.3006 89.4129C89.171 83.138 87.4363 77.1045 85.8629 71.1113C58.5507 -33.9922 1.66724 -99.0736 11.0671 -149.353C24.0576 -218.778 146.539 -233.057 211.047 -165.603C238.359 -137.044 224.925 -72.3653 236.947 -21.9253C241.304 -3.66389 247.92 12.4657 261.919 22.964C327.477 72.1169 431.319 -1.93425 495.585 55.9471C550.452 105.382 535.202 235.987 503.614 385.979C494.698 428.415 481.909 483.642 438.46 527.324C405.984 559.945 353.82 554.636 317.471 587.981C294.96 608.615 293.669 633.876 267.406 639.587C235.979 646.385 204.35 625.63 184.824 611.27C178.45 606.604 173.004 602.019 168.566 598.238C133.266 568.07 118.5 531.427 112.166 513.085" stroke="#32BDA8" stroke-width="2" stroke-miterlimit="10"/>
<path d="M-6.40165 544.42C105.389 366.713 121.203 222.15 96.8358 94.5618C95.6256 88.3272 93.8101 82.3339 92.1561 76.4211C63.4319 -26.6311 2.79653 -87.6096 10.8651 -140.503C22.0401 -214.112 151.662 -237.763 213.951 -173.688C241.142 -145.732 224.239 -79.0421 234.082 -27.3953C237.673 -8.5708 243.765 8.0012 257.723 18.7006C321.707 67.7731 428.293 -11.1049 494.012 45.8916C550.815 95.1249 533.83 229.954 501.193 386.382C492.156 429.703 479.367 486.82 434.466 532.513C403.482 564.048 353.659 561.917 317.633 593.894C295.605 613.443 292.701 637.054 266.922 642.082C234.97 648.276 203.543 627.28 184.138 612.638C177.764 607.811 172.317 603.146 167.96 599.365C132.741 568.594 118.298 531.588 112.166 513.085" stroke="#33C3B0" stroke-width="2" stroke-miterlimit="10"/>
<path d="M-6.40154 544.419C112.166 364.179 128.384 221.949 103.372 99.7505C102.121 93.5561 100.184 87.6433 98.4497 81.8109C68.3135 -19.1899 3.92626 -76.0254 10.6232 -131.614C19.9827 -209.406 156.745 -242.47 216.856 -181.732C243.926 -154.34 223.553 -85.679 231.218 -32.7854C234.042 -13.4379 239.61 3.57654 253.568 14.5173C315.979 63.5093 425.308 -20.1954 492.479 35.9161C551.137 84.9483 532.459 223.96 498.772 386.784C489.614 431.03 476.785 489.957 430.512 537.702C401.021 568.111 353.538 569.197 317.875 599.767C296.332 618.269 291.773 640.191 266.478 644.495C234.002 650.046 202.817 628.848 183.493 613.925C177.078 608.978 171.672 604.231 167.355 600.37C132.217 568.996 118.097 531.628 112.207 513.005" stroke="#33C9B8" stroke-width="2" stroke-miterlimit="10"/>
<path d="M-6.40112 544.419C118.944 361.645 135.525 221.748 109.907 104.899C108.576 98.7449 106.559 92.9125 104.703 87.1204C73.1551 -11.8692 5.01594 -64.4813 10.3815 -122.765C17.9257 -204.7 161.91 -247.216 219.761 -189.737C246.71 -162.948 222.868 -92.3158 228.354 -38.135C230.371 -18.2245 235.495 -0.767553 249.373 10.3743C310.21 59.2859 422.283 -29.2457 490.946 26.0212C551.501 74.7718 531.088 218.007 496.352 387.227C487.073 432.357 474.164 493.135 426.519 542.891C398.48 572.214 353.377 576.477 318.037 605.679C296.978 623.096 290.805 643.328 265.994 646.989C233.034 651.896 202.051 630.497 182.807 615.293C176.393 610.225 170.987 605.358 166.751 601.456C131.693 569.519 117.936 531.749 112.207 512.965" stroke="#34CFC0" stroke-width="2" stroke-miterlimit="10"/>
<path d="M-6.4014 544.419C125.722 359.15 142.625 221.546 116.443 110.088C115.031 103.974 112.933 98.1815 110.996 92.51C78.0363 -4.42816 6.10493 -52.857 10.1392 -113.836C15.8276 -199.913 167.033 -251.922 222.625 -197.741C249.494 -171.556 222.141 -98.9127 225.449 -43.5252C226.7 -23.0917 231.299 -5.19238 245.137 6.19082C304.441 54.9817 419.216 -38.3766 489.332 16.0455C551.823 64.5549 529.675 212.054 493.851 387.709C484.451 433.724 471.42 496.272 422.444 548.16C395.858 576.356 353.175 583.838 318.157 611.672C297.582 628.043 289.796 646.506 265.469 649.563C231.985 653.746 201.244 632.227 182.081 616.7C175.626 611.471 170.26 606.524 166.065 602.622C131.087 570.081 117.653 531.91 112.126 513.045" stroke="#35D5C8" stroke-width="2" stroke-miterlimit="10"/>
<path d="M-6.4016 544.419C132.499 356.617 149.645 221.386 122.978 115.236C121.445 109.203 119.307 103.451 117.29 97.8197C82.9579 2.89265 7.23429 -41.3128 9.89693 -104.986C13.7295 -195.207 172.196 -256.709 225.53 -205.826C252.318 -180.284 221.415 -105.59 222.585 -48.9552C223.029 -27.9988 227.144 -9.65702 240.981 1.96752C298.793 50.6377 416.271 -47.5474 487.799 6.07032C552.227 54.3383 528.303 206.061 491.47 388.111C481.99 435.012 468.757 499.329 418.53 553.349C393.356 580.419 353.134 591.159 318.399 617.585C298.308 632.91 288.908 649.603 265.066 652.057C231.057 655.516 200.558 633.876 181.475 618.068C175.02 612.718 169.655 607.65 165.5 603.708C130.603 570.564 117.491 532.03 112.166 513.005" stroke="#35DBCF" stroke-width="2" stroke-miterlimit="10"/>
<path d="M-6.40131 544.419C139.277 354.082 156.584 221.265 129.554 120.385C127.941 114.392 125.722 108.72 123.584 103.169C87.8801 10.2534 8.32384 -29.7286 9.6955 -96.097C11.632 -190.421 177.441 -261.495 228.435 -213.831C255.142 -188.892 220.689 -112.227 219.721 -54.305C219.358 -32.8258 223.029 -14.0414 236.786 -2.17557C293.064 46.374 413.286 -56.6379 486.266 -3.86494C552.63 44.1215 526.932 200.148 489.05 388.594C479.448 436.379 466.014 502.426 414.537 558.578C390.815 584.482 352.973 598.479 318.561 623.538C298.954 637.777 287.9 652.741 264.582 654.591C230.089 657.286 199.791 635.565 180.79 619.476C174.295 614.005 168.969 608.857 164.895 604.875C130.119 571.127 117.29 532.231 112.207 513.085" stroke="#36E1D7" stroke-width="2" stroke-miterlimit="10"/>
<path d="M-6.40116 544.419C146.055 351.589 163.523 221.145 136.09 125.574C134.396 119.621 132.096 114.03 129.877 108.519C92.8424 17.5743 9.41325 -18.1038 9.4536 -87.2075C9.53429 -185.634 182.605 -266.282 231.34 -221.875C257.966 -197.58 219.963 -118.903 216.897 -59.7349C215.767 -37.7328 218.954 -18.506 232.671 -6.3988C287.416 41.9899 410.301 -65.8489 484.733 -13.8803C553.034 33.8245 525.238 194.034 486.63 388.996C476.826 437.667 463.19 505.362 410.543 563.767C388.233 588.544 352.893 605.84 318.763 629.451C299.68 642.685 287.013 655.838 264.138 657.085C229.121 659.016 199.106 637.215 180.144 620.844C173.649 615.212 168.324 609.983 164.29 605.961C129.595 571.57 117.129 532.352 112.207 513.045" stroke="#37E7DF" stroke-width="2" stroke-miterlimit="10"/>
<path d="M-6.40161 544.419C152.832 349.054 170.341 221.064 142.625 130.722C140.81 124.809 138.51 119.258 136.17 113.868C97.8041 24.9347 10.5021 -6.47974 9.25144 -78.3186C7.39567 -180.848 187.85 -271.149 234.204 -229.92C260.789 -206.309 219.196 -125.581 213.992 -65.1253C212.055 -42.56 214.799 -22.9311 228.434 -10.5825C281.768 37.6855 407.315 -74.98 483.16 -23.8159C553.397 23.5671 523.906 188.121 484.168 389.438C474.244 438.994 460.245 508.298 406.548 568.995C385.651 592.647 352.771 613.201 318.924 635.364C300.326 647.551 286.044 658.894 263.654 659.538C228.152 660.624 198.339 638.823 179.458 622.17C172.963 616.419 167.638 611.069 163.644 607.047C129.07 572.052 116.886 532.473 112.166 513.045" stroke="#37EDE7" stroke-width="2" stroke-miterlimit="10"/>
<path d="M-6.40141 544.419C159.61 346.52 177.159 221.024 149.161 135.871C147.224 130.038 144.885 124.528 142.464 119.178C102.767 32.2154 11.5915 5.10484 9.00959 -69.4692C5.29805 -176.061 193.094 -275.976 237.149 -237.965C263.694 -215.037 218.51 -132.258 211.168 -70.515C208.425 -47.4268 210.684 -27.3554 224.279 -14.7655C276.12 33.3416 404.37 -84.1909 481.627 -33.7911C553.8 13.2702 522.615 182.168 481.788 389.881C471.783 440.321 457.3 511.154 402.595 574.225C383.069 596.709 352.691 620.602 319.166 641.317C301.092 652.499 285.157 661.952 263.251 662.072C227.265 662.273 197.693 640.472 178.853 623.538C172.358 617.626 167.033 612.195 163.119 608.133C128.626 572.535 116.765 532.553 112.247 513.005" stroke="#38F3EF" stroke-width="2" stroke-miterlimit="10"/>
<path d="M-6.40142 544.419C166.387 344.027 183.896 221.024 155.696 141.06C153.679 135.268 151.259 129.797 148.717 124.568C107.85 39.4558 12.6404 16.7296 8.76753 -60.5796C3.15987 -171.234 198.339 -280.883 240.013 -246.009C266.559 -223.766 217.623 -138.975 208.263 -75.9449C204.673 -52.3741 206.569 -31.8601 220.084 -18.9887C270.472 28.9173 401.385 -93.4018 480.094 -43.7662C554.204 2.97325 521.284 176.175 479.327 390.324C469.242 441.689 454.153 513.93 398.601 579.414C380.487 600.772 352.61 628.003 319.327 647.23C301.738 657.407 284.229 665.009 262.766 664.566C226.296 663.842 196.887 642.122 178.167 624.906C171.632 618.873 166.347 613.322 162.474 609.259C128.183 572.978 116.523 532.714 112.247 513.045" stroke="#38F9F7" stroke-width="2" stroke-miterlimit="10"/>
<path d="M-6.40162 544.419C173.165 341.493 190.593 221.064 162.232 146.208C125.399 48.908 14.0523 33.3818 8.52529 -51.6905C1.06185 -166.407 203.624 -285.79 242.918 -254.014C279.428 -224.49 166.548 -71.239 215.888 -23.1319C264.864 24.6131 398.359 -102.573 478.52 -53.7016C554.607 -7.28392 519.952 170.262 476.906 390.766C466.7 443.016 450.926 516.625 394.607 584.642C369.231 615.293 324.007 669.916 262.282 667.1C212.418 664.848 176.553 626.233 161.828 610.385C127.577 573.541 116.281 532.875 112.207 513.045" stroke="#39FFFF" stroke-width="2" stroke-miterlimit="10"/>
</svg>
