<svg width="337" height="440" viewBox="0 0 337 440" fill="none" xmlns="http://www.w3.org/2000/svg">
<g filter="url(#filter0_d_1_865)">
<path d="M3.6175 383.016C5.7054 317.378 6.62796 230.152 2.40362 126.94C-0.169818 64.112 -4.24848 4.39195 16.242 0.390769C43.3117 -4.91313 58.6795 97.6661 175.99 158.391C244.866 194.03 291.819 187.069 319.714 226.132C345.643 262.44 342.341 317.824 307.333 338.91C272.47 359.902 222.166 337.309 196.869 361.986C179.292 379.126 192.159 401.142 172.591 409.628C157.66 416.105 137.315 408.865 124.764 404.417C96.5529 394.405 81.4764 377.172 74.9942 368.5" stroke="#122E2A" stroke-opacity="0.7" stroke-width="2" stroke-miterlimit="10"/>
<path d="M3.61734 383.016C9.71107 318.271 11.3862 235.549 6.72489 139.055C6.57923 135.854 6.38502 132.635 6.1908 129.415C2.74335 67.5177 -3.37467 10.0495 16.0961 4.48504C35.9311 -1.17244 53.7995 53.0017 110.075 106.525C127.847 123.33 147.876 140.879 174.266 155.897C183.176 160.978 191.795 165.277 200.365 168.85C253.727 191.145 293.591 188.279 318.792 221.517C336.684 245.152 340.399 278.817 331.028 306.844C326.415 320.672 318.088 333.159 304.929 341.31C271.329 362.154 222.069 340.678 196.966 364.722C179.68 381.359 191.673 402.742 172.299 410.782C157.15 417.054 136.854 409.647 124.351 405.05C120.709 403.692 117.286 402.24 114.106 400.714C92.4741 390.329 80.5051 376.111 74.9941 368.481" stroke="#122E2A" stroke-opacity="0.7" stroke-width="2" stroke-miterlimit="10"/>
<path d="M3.61762 383.016C13.79 317.117 16.2178 235.437 10.6582 141.456C10.464 138.274 10.1969 135.091 9.9784 131.89C5.48701 70.942 -2.40328 15.6512 15.975 8.6166C35.0573 1.30281 56.6403 50.9919 111.848 102.821C129.474 119.384 147.561 137.771 172.567 153.404C181.04 158.708 189.318 163.267 197.864 166.915C250.207 189.303 291.625 184.166 317.869 216.92C336.757 240.499 339.671 276.063 329.547 307.049C324.886 321.304 316.631 334.741 302.526 343.73C270.139 364.35 221.899 344.009 197.087 367.476C180.02 383.593 191.212 404.362 172.033 411.955C156.665 418.04 136.393 410.447 123.963 405.701C120.297 404.287 116.898 402.798 113.742 401.254C92.1101 390.646 80.384 376.204 74.9943 368.518" stroke="#122E2A" stroke-opacity="0.7" stroke-width="2" stroke-miterlimit="10"/>
<path d="M3.61767 383.016C17.8687 315.945 21.0006 235.344 14.5912 143.838C14.3727 140.674 14.0328 137.529 13.7415 134.365C8.279 74.3662 -1.43211 21.1969 15.8051 12.7293C34.1591 3.70339 59.578 48.8889 113.548 99.1177C131.076 115.42 147.172 134.663 170.795 150.928C178.83 156.456 186.769 161.257 195.315 164.998C246.614 187.479 289.61 180.072 316.898 212.323C336.855 235.847 338.943 273.327 328.09 307.254C323.405 321.919 315.199 336.341 300.122 346.149C268.877 366.49 221.778 347.377 197.184 370.231C180.384 385.844 190.702 405.962 171.741 413.127C156.131 419.008 135.907 411.247 123.55 406.334C119.86 404.864 116.485 403.319 113.378 401.756C91.7703 390.906 80.2627 376.242 74.9944 368.5" stroke="#122E2A" stroke-opacity="0.7" stroke-width="2" stroke-miterlimit="10"/>
<path d="M3.6175 383.016C21.9472 314.772 25.7588 235.232 18.5241 146.22C18.2813 143.075 17.8686 139.948 17.5287 136.822C11.1193 77.7719 -0.436889 26.6684 15.6836 16.8236C33.3578 6.02976 62.5397 46.7674 115.32 95.3771C132.751 111.438 146.881 131.518 169.095 148.397C176.694 154.167 184.269 159.21 192.814 163.025C243.094 185.581 287.643 175.922 315.976 207.689C336.952 231.213 338.19 270.573 326.634 307.458C321.899 322.551 313.766 337.923 297.743 348.55C267.59 368.556 221.656 350.727 197.33 372.948C180.797 388.04 190.241 407.525 171.498 414.244C155.645 419.938 135.494 411.992 123.186 406.93C119.495 405.404 116.097 403.803 113.038 402.24C91.4546 391.148 80.1654 376.279 75.0185 368.481" stroke="#122E2A" stroke-opacity="0.7" stroke-width="2" stroke-miterlimit="10"/>
<path d="M3.61737 383.016C26.0258 313.618 30.4686 235.121 22.4569 148.621C22.1656 145.494 21.7043 142.405 21.3159 139.316C13.9597 81.2148 0.534103 32.1026 15.5378 20.9551C32.508 8.33742 65.5015 44.6831 117.043 91.6923C134.378 107.455 146.516 128.41 167.347 145.904C174.484 151.896 181.744 157.181 190.289 161.09C239.549 183.701 285.725 171.79 315.053 203.074C337.073 226.56 337.437 267.819 325.177 307.663C320.394 323.165 312.309 339.487 295.339 350.969C266.254 370.621 221.535 354.096 197.427 375.702C181.161 390.292 189.707 409.107 171.207 415.416C155.111 420.906 135.009 412.792 122.773 407.581C119.058 405.999 115.684 404.362 112.673 402.761C91.1145 391.409 80.0681 376.353 75.0426 368.481" stroke="#122E2A" stroke-opacity="0.7" stroke-width="2" stroke-miterlimit="10"/>
<path d="M3.61772 383.016C30.1048 312.446 35.1788 235.028 26.3903 151.003C26.0747 147.913 25.5406 144.843 25.1036 141.772C16.8006 84.6203 1.48129 37.4622 15.4167 25.0306C31.6586 10.5146 68.488 42.5427 118.816 87.9329C136.053 103.472 146.201 125.302 165.648 143.41C172.348 149.644 179.268 155.153 187.789 159.154C236.029 181.821 283.783 167.659 314.106 198.459C337.195 221.907 336.685 265.064 323.696 307.849C318.865 323.761 310.853 341.05 292.912 353.37C264.871 372.631 221.389 357.445 197.5 378.437C181.501 392.525 189.149 410.67 170.867 416.57C154.504 421.855 134.499 413.555 122.288 408.214C118.573 406.576 115.198 404.883 112.212 403.282C90.6779 391.688 79.85 376.428 74.9458 368.5" stroke="#122E2A" stroke-opacity="0.7" stroke-width="2" stroke-miterlimit="10"/>
<path d="M3.6175 383.016C34.1832 311.274 39.84 234.916 30.3231 153.385C29.9589 150.314 29.3762 147.262 28.8664 144.247C19.6409 88.0447 2.37932 42.8034 15.2465 29.1436C30.7358 12.7108 71.4496 40.4213 120.515 84.2296C137.655 99.5272 145.813 122.213 163.875 140.916C170.139 147.393 176.718 153.124 185.215 157.219C232.46 179.923 281.841 163.528 313.159 193.843C337.316 217.236 335.883 262.31 322.239 308.054C317.359 324.394 309.396 342.613 290.532 355.77C263.487 374.641 221.268 360.795 197.646 381.173C181.889 394.74 188.663 412.215 170.624 417.724C153.994 422.786 134.086 414.337 121.923 408.828C118.184 407.134 114.834 405.404 111.872 403.766C90.362 391.911 79.7526 376.465 74.9699 368.463" stroke="#122E2A" stroke-opacity="0.7" stroke-width="2" stroke-miterlimit="10"/>
<path d="M3.6176 383.016C38.262 310.12 44.4771 234.804 34.2562 155.785C33.8677 152.733 33.2122 149.719 32.6538 146.722C22.4814 91.4688 3.22916 48.1257 15.101 33.2562C29.7648 14.8879 74.4359 38.2995 122.263 80.5074C139.306 95.5444 145.473 119.123 162.152 138.422C167.954 145.14 174.193 151.096 182.715 155.283C228.964 178.025 279.972 159.377 312.237 189.247C337.461 212.602 335.131 259.574 320.783 308.259C315.854 325.008 307.94 344.176 288.129 358.19C262.079 376.632 221.147 364.163 197.743 383.927C182.278 396.992 188.104 413.778 170.333 418.896C153.436 423.753 133.601 415.118 121.511 409.479C117.772 407.73 114.421 405.943 111.508 404.306C90.0222 392.19 79.6313 376.539 74.97 368.5" stroke="#122E2A" stroke-opacity="0.7" stroke-width="2" stroke-miterlimit="10"/>
<path d="M3.6177 383.016C42.3408 308.947 49.09 234.693 38.2136 158.168C37.7766 155.134 37.0725 152.157 36.4655 149.198C25.3949 94.8933 4.10324 53.4298 15.004 37.3693C28.818 17.0284 77.495 36.1782 124.06 76.8042C141.006 91.5807 145.157 116.053 160.476 135.947C165.842 142.907 171.741 149.105 180.239 153.366C225.492 176.127 278.127 155.246 311.339 184.65C337.656 207.95 334.378 256.82 319.35 308.482C314.349 325.641 306.507 345.74 285.75 360.628C260.671 378.624 221.05 367.551 197.889 386.701C182.691 399.262 187.595 415.36 170.09 420.087C152.926 424.721 133.188 415.937 121.146 410.149C117.383 408.344 114.057 406.502 111.168 404.845C89.7067 392.47 79.5586 376.632 75.0187 368.518" stroke="#122E2A" stroke-opacity="0.7" stroke-width="2" stroke-miterlimit="10"/>
<path d="M3.6177 383.016C46.4194 307.794 53.6542 234.563 42.1466 160.55C41.6853 157.535 40.9084 154.595 40.2286 151.654C28.2354 98.299 4.85587 58.7152 14.834 41.4635C27.7256 19.15 80.4569 34.0381 125.759 73.0636C142.608 87.5795 144.744 112.964 158.704 133.416C163.608 140.618 169.192 147.039 177.689 151.394C221.972 174.173 276.233 151.059 310.368 180.016C337.777 203.26 333.553 254.047 317.845 308.668C312.795 326.236 305.002 347.266 283.322 363.028C259.19 380.559 220.928 370.901 197.961 389.418C183.031 401.477 187.012 416.868 169.775 421.204C152.319 425.614 132.703 416.663 120.709 410.745C116.922 408.884 113.62 407.004 110.756 405.329C89.3426 392.693 79.3887 376.67 74.9701 368.5" stroke="#122E2A" stroke-opacity="0.7" stroke-width="2" stroke-miterlimit="10"/>
<path d="M3.61746 383.016C50.4979 306.621 58.1939 234.451 46.0793 162.95C45.5695 159.954 44.744 157.051 44.0157 154.148C31.1242 101.742 5.63252 64.0374 14.7124 45.5947C26.6571 21.3085 83.4914 31.9163 127.531 69.3785C144.283 83.6339 144.404 109.911 157.005 130.96C161.472 138.422 166.716 145.029 175.189 149.495C218.452 172.255 274.363 146.927 309.445 175.419C337.971 198.589 332.776 251.311 316.388 308.873C311.266 326.85 303.521 348.81 280.918 365.429C257.733 382.494 220.807 374.25 198.058 392.153C183.394 403.71 186.453 418.375 169.483 422.357C151.761 426.526 132.217 417.444 120.297 411.359C116.509 409.423 113.183 407.506 110.391 405.813C89.0024 392.916 79.267 376.707 74.9699 368.462" stroke="#122E2A" stroke-opacity="0.7" stroke-width="2" stroke-miterlimit="10"/>
<path d="M3.6175 383.016C54.5766 305.449 62.7096 234.339 50.0123 165.333C49.454 162.355 48.58 159.471 47.8031 156.605C34.0133 105.148 6.3609 69.3229 14.5668 49.6892C25.5161 23.4303 86.5261 29.7578 129.255 65.6381C145.934 79.633 144.016 106.822 155.257 128.447C159.262 136.152 164.191 142.982 172.639 147.541C214.956 170.32 272.518 142.759 308.498 170.804C338.141 193.918 331.975 248.539 314.932 309.078C309.76 327.483 302.04 350.336 278.539 367.849C256.276 384.43 220.709 377.619 198.204 394.908C183.807 405.962 185.919 419.901 169.241 423.53C151.226 427.457 131.804 418.226 119.932 412.01C116.121 410.019 112.819 408.046 110.051 406.353C88.6869 393.196 79.17 376.8 74.9942 368.5" stroke="#122E2A" stroke-opacity="0.7" stroke-width="2" stroke-miterlimit="10"/>
<path d="M3.61754 383.016C58.6553 304.295 67.1768 234.227 53.9454 167.715C53.3627 164.756 52.4159 161.908 51.5905 159.08C36.9024 108.572 7.08928 74.6267 14.4212 53.8019C24.3508 25.5889 89.5609 27.6174 131.003 61.9346C147.585 75.6689 143.628 103.77 153.533 125.954C157.077 133.919 161.69 140.953 170.139 145.606C211.484 168.385 270.673 138.571 307.575 166.207C338.335 189.228 331.173 245.784 313.475 309.282C308.231 328.097 300.535 351.862 276.136 370.268C254.796 386.365 220.612 380.987 198.301 397.662C184.196 408.214 185.337 421.408 168.949 424.702C150.62 428.387 131.343 419.008 119.52 412.662C115.708 410.614 112.406 408.605 109.687 406.874C88.3713 393.456 79.0486 376.874 75.0185 368.5" stroke="#122E2A" stroke-opacity="0.7" stroke-width="2" stroke-miterlimit="10"/>
<path d="M3.61735 383.016C62.7338 303.122 71.6195 234.116 57.8782 170.115C57.247 167.194 56.2516 164.365 55.3533 161.555C39.7913 111.996 7.76884 79.9491 14.2753 57.9147C23.161 27.7476 92.5955 25.4586 132.727 58.2124C149.236 71.6862 143.215 100.699 151.785 123.46C154.868 131.667 159.165 138.925 167.59 143.67C207.988 166.431 268.828 134.402 306.629 161.592C338.53 184.538 330.348 243.03 312.018 309.487C306.701 328.711 299.03 353.37 273.732 372.668C253.29 388.264 220.491 384.355 198.422 400.397C184.584 410.447 184.778 422.897 168.682 425.856C150.061 429.28 130.906 419.771 119.131 413.294C115.295 411.191 112.018 409.126 109.323 407.395C88.0555 393.698 78.9513 376.93 75.0183 368.5" stroke="#122E2A" stroke-opacity="0.7" stroke-width="2" stroke-miterlimit="10"/>
<path d="M3.61756 383.016C66.8126 301.95 76.0382 234.023 61.8114 172.498C61.1316 169.594 60.0877 166.803 59.1409 164.03C42.7048 115.402 8.47311 85.2903 14.1298 62.0276C21.9473 29.9065 95.6546 23.2999 134.475 54.5091C150.911 67.7223 142.826 97.6475 150.061 120.985C152.683 129.434 156.665 136.896 165.089 141.754C204.541 164.495 267.032 130.234 305.706 157.014C338.724 179.886 329.547 240.313 310.537 309.71C305.172 329.344 297.476 354.896 271.329 375.106C251.785 390.199 220.394 387.743 198.52 403.17C184.973 412.717 184.196 424.405 168.391 427.047C149.478 430.192 130.445 420.589 118.694 413.946C114.858 411.787 111.581 409.665 108.91 407.916C87.6672 393.958 78.7816 377.004 74.9699 368.518" stroke="#122E2A" stroke-opacity="0.7" stroke-width="2" stroke-miterlimit="10"/>
<path d="M3.61736 383.016C70.8911 300.796 80.408 233.911 65.7442 174.88C65.0159 171.995 63.9234 169.222 62.928 166.487C45.6422 118.807 9.1527 90.5943 14.0083 66.122C20.7332 32.0654 98.7377 21.1226 136.223 50.7686C152.586 63.7027 142.413 94.5583 148.337 118.454C150.498 127.163 154.164 134.831 162.564 139.781C201.069 162.485 265.211 125.991 304.759 152.361C338.942 175.14 328.721 237.522 309.08 309.896C303.642 329.94 295.946 356.366 268.925 377.507C250.28 392.098 220.297 391.111 198.617 405.906C185.361 414.951 183.613 425.875 168.099 428.201C148.871 431.067 129.959 421.353 118.281 414.579C114.445 412.345 111.168 410.187 108.546 408.437C87.3514 394.2 78.66 377.079 74.9698 368.518" stroke="#122E2A" stroke-opacity="0.7" stroke-width="2" stroke-miterlimit="10"/>
<path d="M3.61749 383.016C74.9699 299.624 84.7296 233.818 69.6773 177.28C68.9247 174.414 67.7594 171.679 66.7154 168.98C48.5799 122.25 9.8326 95.954 13.8627 70.2348C19.4952 34.2427 101.797 18.9452 137.971 47.0465C154.261 59.72 142.001 91.4876 146.614 115.96C148.313 124.911 151.663 132.784 160.064 137.845C197.621 160.513 263.414 121.785 303.837 147.746C339.136 170.432 327.896 234.749 307.624 310.082C302.113 330.554 294.392 357.818 266.546 379.908C248.799 393.977 220.224 394.48 198.762 408.623C185.798 417.184 183.055 427.326 167.832 429.318C148.289 431.886 129.522 422.078 117.893 415.174C114.033 412.885 110.78 410.689 108.182 408.902C87.0359 394.386 78.5387 377.098 74.9942 368.481" stroke="#122E2A" stroke-opacity="0.7" stroke-width="2" stroke-miterlimit="10"/>
<path d="M3.61768 383.016C79.0488 298.451 89.0269 233.725 73.6105 179.663C72.8094 176.815 71.5955 174.117 70.4787 171.437C51.4935 125.637 10.4883 101.295 13.7173 74.329C18.2572 36.4201 104.905 16.7492 139.719 43.3431C155.937 55.7375 141.588 88.4169 144.89 113.485C146.104 122.697 149.187 130.774 157.539 135.929C194.15 158.559 261.593 117.598 302.914 143.168C339.355 165.724 327.071 231.994 306.168 310.287C300.584 331.168 292.815 359.288 264.143 382.309C247.27 395.875 220.127 397.848 198.86 411.359C186.187 419.417 182.472 428.778 167.541 430.472C147.706 432.742 129.061 422.841 117.481 415.807C113.62 413.462 110.367 411.21 107.818 409.405C86.7206 394.628 78.4418 377.154 74.9944 368.463" stroke="#122E2A" stroke-opacity="0.7" stroke-width="2" stroke-miterlimit="10"/>
<path d="M3.61751 383.016C83.1273 297.297 93.2997 233.632 77.5434 182.063C76.6937 179.234 75.4312 176.554 74.2659 173.93C54.4309 129.08 11.1436 106.673 13.5714 78.4604C16.9946 38.6346 107.988 14.5717 141.443 39.6396C157.612 51.7548 141.151 85.3648 143.142 110.991C143.895 120.445 146.662 128.726 154.99 133.993C190.678 156.567 259.748 113.373 301.943 138.553C339.549 160.996 326.221 229.24 304.662 310.51C299.005 331.8 291.164 360.739 261.69 384.746C245.691 397.792 220.005 401.254 198.932 414.132C186.551 421.706 181.865 430.248 167.226 431.663C147.075 433.598 128.575 423.642 117.043 416.458C113.159 414.039 109.93 411.75 107.405 409.944C86.3562 394.889 78.2717 377.228 74.9456 368.5" stroke="#122E2A" stroke-opacity="0.7" stroke-width="2" stroke-miterlimit="10"/>
<path d="M3.61741 383.016C87.2058 296.125 97.5239 233.557 81.4763 184.445C80.5537 181.654 79.267 178.993 78.0531 176.387C57.3927 132.467 11.8233 112.015 13.4256 82.5547C15.732 40.8121 111.095 12.3572 143.19 35.899C159.311 47.7165 140.714 82.2755 141.418 108.479C141.685 118.175 144.162 126.661 152.489 132.039C187.279 154.557 257.976 109.13 301.02 133.937C339.792 156.27 325.395 226.467 303.23 310.697C297.524 332.396 289.561 362.154 259.335 387.147C244.186 399.672 219.981 404.641 199.078 416.868C186.988 423.958 181.331 431.681 166.983 432.816C146.516 434.417 128.162 424.405 116.679 417.091C112.795 414.616 109.566 412.271 107.065 410.447C86.0648 395.112 78.1745 377.284 74.9698 368.481" stroke="#122E2A" stroke-opacity="0.7" stroke-width="2" stroke-miterlimit="10"/>
<path d="M3.61757 383.016C91.2847 294.952 101.7 233.502 85.4337 186.827C84.4626 184.054 83.1273 181.43 81.8406 178.862C60.3548 135.873 12.479 117.374 13.3044 86.6675C14.4697 43.0266 114.251 10.1425 144.939 32.1955C161.01 43.7338 140.277 79.2048 139.695 106.003C139.476 115.941 141.685 124.632 149.964 130.122C183.832 152.585 256.179 104.924 300.098 129.341C340.035 151.542 324.57 223.731 301.773 310.92C295.995 333.029 287.91 363.587 256.932 389.566C242.657 401.551 219.884 408.028 199.175 419.622C187.376 426.21 180.724 433.133 166.691 433.989C145.934 435.236 127.701 425.186 116.266 417.742C112.358 415.211 109.153 412.829 106.701 410.987C85.7736 395.373 78.0533 377.377 74.9943 368.518" stroke="#122E2A" stroke-opacity="0.7" stroke-width="2" stroke-miterlimit="10"/>
<path d="M3.6177 383.016C95.3635 293.799 105.876 233.446 89.3668 189.228C88.3472 186.474 86.9633 183.887 85.628 181.337C63.341 139.26 13.1346 122.753 13.1589 90.7804C13.2074 45.2414 117.359 7.92799 146.687 28.4736C162.71 39.7141 139.84 76.1156 137.995 103.491C137.315 113.671 139.233 122.567 147.488 128.168C180.433 150.556 254.383 100.662 299.175 124.707C340.278 146.778 323.55 220.903 300.317 311.106C294.417 333.624 286.211 364.945 254.529 391.967C241.103 403.431 219.836 411.433 199.297 422.358C187.813 428.48 180.19 434.566 166.425 435.143C145.351 436.036 127.289 425.949 115.878 418.375C111.969 415.77 108.765 413.35 106.337 411.489C85.4581 395.578 77.9563 377.433 74.9944 368.5" stroke="#122E2A" stroke-opacity="0.7" stroke-width="2" stroke-miterlimit="10"/>
<path d="M3.61741 383.016C99.4418 292.626 109.978 233.408 93.2995 191.61C92.207 188.874 90.8232 186.306 89.4151 183.812C66.3269 142.665 13.7898 128.131 13.0372 94.893C11.9204 47.4557 120.515 5.67595 148.41 24.7514C164.409 35.6755 139.379 73.0261 136.247 100.997C135.082 111.437 136.733 120.519 144.938 126.233C177.034 148.565 252.586 96.4377 298.228 120.11C340.496 142.033 322.749 218.167 298.835 311.311C292.863 334.238 284.439 366.304 252.125 394.386C239.549 405.329 219.763 414.839 199.393 425.093C188.201 430.732 179.607 435.98 166.133 436.278C144.768 436.78 126.827 426.694 115.465 418.989C111.556 416.328 108.352 413.853 105.948 411.992C85.1422 395.801 77.8103 377.488 74.9698 368.5" stroke="#122E2A" stroke-opacity="0.7" stroke-width="2" stroke-miterlimit="10"/>
<path d="M3.61755 383.016C103.521 291.454 114.081 233.39 97.2327 193.992C96.0674 191.294 94.6592 188.744 93.2026 186.269C69.3132 146.034 14.4454 133.491 12.8917 98.9874C10.6581 49.6705 123.671 3.44285 150.183 21.0294C166.157 31.6372 138.966 69.9369 134.548 98.5035C132.897 109.186 134.256 118.472 142.438 124.297C173.635 146.555 250.814 92.1761 297.306 115.495C340.739 137.269 321.972 215.413 297.403 311.515C291.382 334.853 282.666 367.625 249.746 396.806C237.995 407.209 219.714 418.263 199.539 427.848C188.663 433.021 179.073 437.395 165.89 437.45C144.234 437.543 126.439 427.457 115.101 419.622C111.192 416.886 107.988 414.374 105.633 412.494C84.8753 396.024 77.7376 377.526 75.0185 368.481" stroke="#122E2A" stroke-opacity="0.7" stroke-width="2" stroke-miterlimit="10"/>
<path d="M3.61748 383.016C107.599 290.3 118.136 233.39 101.166 196.393C99.9518 193.713 98.4951 191.182 96.9656 188.763C72.3722 149.384 15.0766 138.869 12.7459 103.1C9.37133 51.9038 126.827 1.17252 151.906 17.3075C167.881 27.5989 138.432 66.8292 132.8 95.9913C130.639 106.897 131.78 116.388 139.913 122.343C170.236 144.508 249.017 87.9145 296.383 110.879C340.982 132.504 321.171 212.64 295.922 311.72C289.853 335.485 280.773 368.909 247.342 399.207C236.441 409.089 219.666 421.688 199.636 430.583C189.051 435.292 178.515 438.809 165.599 438.604C143.652 438.269 125.953 428.22 114.688 420.255C110.755 417.463 107.575 414.895 105.244 413.015C84.6082 396.229 77.5919 377.6 75.0185 368.5" stroke="#122E2A" stroke-opacity="0.7" stroke-width="2" stroke-miterlimit="10"/>
<path d="M3.6174 383.016C111.678 289.127 122.166 233.409 105.099 198.775C82.9329 153.757 15.9263 146.574 12.6002 107.213C8.10881 54.1369 130.008 -1.09802 153.654 13.604C175.626 27.2639 107.696 98.1686 137.388 120.426C166.861 142.517 247.196 83.6713 295.436 106.283C341.224 127.759 320.37 209.904 294.465 311.925C288.323 336.099 278.83 370.156 244.939 401.626C229.668 415.807 202.452 441.079 165.307 439.777C135.3 438.734 113.717 420.869 104.856 413.536C84.2439 396.489 77.4462 377.675 74.9941 368.5" stroke="#122E2A" stroke-opacity="0.7" stroke-width="2" stroke-miterlimit="10"/>
</g>
<defs>
<filter id="filter0_d_1_865" x="-4.75146" y="-0.807434" width="346.505" height="449.633" filterUnits="userSpaceOnUse" color-interpolation-filters="sRGB">
<feFlood flood-opacity="0" result="BackgroundImageFix"/>
<feColorMatrix in="SourceAlpha" type="matrix" values="0 0 0 0 0 0 0 0 0 0 0 0 0 0 0 0 0 0 127 0" result="hardAlpha"/>
<feOffset dy="4"/>
<feGaussianBlur stdDeviation="2"/>
<feComposite in2="hardAlpha" operator="out"/>
<feColorMatrix type="matrix" values="0 0 0 0 0 0 0 0 0 0 0 0 0 0 0 0 0 0 0.25 0"/>
<feBlend mode="normal" in2="BackgroundImageFix" result="effect1_dropShadow_1_865"/>
<feBlend mode="normal" in="SourceGraphic" in2="effect1_dropShadow_1_865" result="shape"/>
</filter>
</defs>
</svg>
